<?xml version="1.0" encoding="UTF-8"?>
<svg width="40px" height="40px" viewBox="0 0 40 40" version="1.1" xmlns="http://www.w3.org/2000/svg" xmlns:xlink="http://www.w3.org/1999/xlink">
    <!-- Generator: Sketch 49.3 (51167) - http://www.bohemiancoding.com/sketch -->
    <title>Group 3</title>
    <desc>Created with Sketch.</desc>
    <defs>
        <path d="M6,4 L6,12 L10,12 L10,4 L6,4 Z M4,4 L2,4 L2,12 L4,12 L4,4 Z M5,2 L5,1 C5,0.44771525 5.44771525,0 6,0 L10,0 C10.5522847,0 11,0.44771525 11,1 L11,2 L14,2 C15.1045695,2 16,2.8954305 16,4 L16,12 C16,13.1045695 15.1045695,14 14,14 L2,14 C0.8954305,14 0,13.1045695 0,12 L0,4 C0,2.8954305 0.8954305,2 2,2 L5,2 Z M12,4 L12,12 L14,12 L14,4 L12,4 Z" id="path-1"></path>
    </defs>
    <g id="Sign-up-•-Personal" stroke="none" stroke-width="1" fill="none" fill-rule="evenodd">
        <g id="Sign-Up-•-Personal-•-Unfilled" transform="translate(-1152.000000, -216.000000)">
            <g id="Form" transform="translate(832.000000, 187.000000)">
                <g id="Card" transform="translate(232.000000, 5.000000)">
                    <g id="Group-3" transform="translate(88.000000, 24.000000)">
                        <circle id="Mask" fill="#0092FF" opacity="0.100000001" cx="20" cy="20" r="20"></circle>
                        <g id="Icon/Business-Briefcase/16x16" transform="translate(12.000000, 12.000000)">
                            <g>
                                <rect id="Rectangle-8" x="0" y="0" width="16" height="16"></rect>
                                <g id="🎨-Mixin/Black" transform="translate(0.000000, 1.000000)">
                                    <mask id="mask-2" fill="white">
                                        <use xlink:href="#path-1"></use>
                                    </mask>
                                    <g id="Mask" fill-rule="nonzero"></g>
                                    <g id="🎨-Mixin/Light-Blue" mask="url(#mask-2)" fill="#0092FF">
                                        <g transform="translate(0.000000, -1.000000)" id="Light-Blue-Mixin/16">
                                            <rect x="0" y="0" width="16" height="16"></rect>
                                        </g>
                                    </g>
                                </g>
                            </g>
                        </g>
                    </g>
                </g>
            </g>
        </g>
    </g>
</svg>