<?xml version="1.0" encoding="UTF-8"?>
<svg width="40px" height="40px" viewBox="0 0 40 40" version="1.1" xmlns="http://www.w3.org/2000/svg" xmlns:xlink="http://www.w3.org/1999/xlink">
    <!-- Generator: Sketch 49.3 (51167) - http://www.bohemiancoding.com/sketch -->
    <title>Group 2</title>
    <desc>Created with Sketch.</desc>
    <defs>
        <path d="M2.77112738,10.9447576 C4.20316699,9.70652463 6.04472716,9 8,9 C9.95527284,9 11.796833,9.70652463 13.2288726,10.9447576 C13.7198433,10.0748345 14,9.07013428 14,8 C14,4.6862915 11.3137085,2 8,2 C4.6862915,2 2,4.6862915 2,8 C2,9.07013428 2.28015675,10.0748345 2.77112738,10.9447576 Z M8,16 C3.581722,16 0,12.418278 0,8 C0,3.581722 3.581722,0 8,0 C12.418278,0 16,3.581722 16,8 C16,12.418278 12.418278,16 8,16 Z M8,14 C9.48928082,14 10.8882412,13.4550633 11.9692169,12.5 C10.8882412,11.5449367 9.48928082,11 8,11 C6.51071918,11 5.11175877,11.5449367 4.0307831,12.5 C5.11175877,13.4550633 6.51071918,14 8,14 Z M8,9 C6.34314575,9 5,7.65685425 5,6 C5,4.34314575 6.34314575,3 8,3 C9.65685425,3 11,4.34314575 11,6 C11,7.65685425 9.65685425,9 8,9 Z M8,7 C8.55228475,7 9,6.55228475 9,6 C9,5.44771525 8.55228475,5 8,5 C7.44771525,5 7,5.44771525 7,6 C7,6.55228475 7.44771525,7 8,7 Z" id="path-1"></path>
    </defs>
    <g id="Sign-up-•-Personal" stroke="none" stroke-width="1" fill="none" fill-rule="evenodd">
        <g id="Sign-Up-•-Personal-•-Unfilled" transform="translate(-920.000000, -216.000000)">
            <g id="Form" transform="translate(832.000000, 187.000000)">
                <g id="Card">
                    <g id="Group-2" transform="translate(88.000000, 29.000000)">
                        <circle id="Mask" fill="#00C759" opacity="0.100000001" cx="20" cy="20" r="20"></circle>
                        <g id="Icon/User/16x16" transform="translate(12.000000, 12.000000)">
                            <g>
                                <rect id="Rectangle-14-Copy-2" x="0" y="0" width="16" height="16"></rect>
                                <g id="🎨-Mixin/Light-Blue">
                                    <mask id="mask-2" fill="white">
                                        <use xlink:href="#path-1"></use>
                                    </mask>
                                    <g id="Mask" fill-rule="nonzero"></g>
                                    <g id="🎨-Mixin/Green" mask="url(#mask-2)" fill="#00C759">
                                        <rect id="Green-Mixin/16" x="0" y="0" width="16" height="16"></rect>
                                    </g>
                                </g>
                            </g>
                        </g>
                    </g>
                </g>
            </g>
        </g>
    </g>
</svg>